<?xml version="1.0" encoding="UTF-8" standalone="no"?>
<svg
   version="1.1"
   id="svg2"
   xml:space="preserve"
   width="2800"
   height="2800"
   viewBox="0 0 2800 2800"
   sodipodi:docname="350.svg"
   inkscape:version="1.1.1 (3bf5ae0d25, 2021-09-20)"
   xmlns:inkscape="http://www.inkscape.org/namespaces/inkscape"
   xmlns:sodipodi="http://sodipodi.sourceforge.net/DTD/sodipodi-0.dtd"
   xmlns="http://www.w3.org/2000/svg"
   xmlns:svg="http://www.w3.org/2000/svg"
   xmlns:rdf="http://www.w3.org/1999/02/22-rdf-syntax-ns#"
   xmlns:cc="http://creativecommons.org/ns#"
   xmlns:dc="http://purl.org/dc/elements/1.1/"><metadata
     id="metadata8"><rdf:RDF><cc:Work
         rdf:about=""><dc:format>image/svg+xml</dc:format><dc:type
           rdf:resource="http://purl.org/dc/dcmitype/StillImage" /></cc:Work></rdf:RDF></metadata><defs
     id="defs6" /><sodipodi:namedview
     pagecolor="#ffffff"
     bordercolor="#666666"
     borderopacity="1"
     objecttolerance="10"
     gridtolerance="10"
     guidetolerance="10"
     inkscape:pageopacity="0"
     inkscape:pageshadow="2"
     inkscape:window-width="1920"
     inkscape:window-height="1051"
     id="namedview4"
     inkscape:pagecheckerboard="0"
     showgrid="false"
     inkscape:zoom="0.2975"
     inkscape:cx="482.35294"
     inkscape:cy="1662.1849"
     inkscape:window-x="-9"
     inkscape:window-y="-9"
     inkscape:window-maximized="1"
     inkscape:current-layer="g10" /><g
     id="g10"
     inkscape:groupmode="layer"
     inkscape:label="ink_ext_XXXXXX"
     transform="matrix(1.3333333,0,0,-1.3333333,0,2800)"><g
       id="g12"
       transform="scale(0.1)"><path
         d="M 0,21000 H 21000 V 0 H 0 v 21000"
         style="fill:#070304;fill-opacity:1;fill-rule:evenodd;stroke:none"
         id="path14" /><path
         d="m 13644.5,7642 h 1733.8 V 9382 C 15256.7,8099.6 14002.9,7691.6 13644.5,7642 Z m -2184,0 121.6,85.6 v 5543.6 l -121.6,86.8 h 1525.4 l -115.3,-79.4 V 7642 Z m -1382.8,4132.3 c -49.6,1124.8 -673.4,1583.7 -673.4,1583.7 h 1411.3 c -701.9,-365.9 -737.9,-1583.7 -737.9,-1583.7 z m 0,-4132.3 H 9210.82 L 5809,13278.6 5622.97,13358 H 7320.8 l 2527.49,-4291 229.41,902.8 z m -2944.17,0 H 5708.55 c 709.39,415.5 737.91,1718.9 737.91,1718.9 C 6503.5,8071.1 7133.53,7642 7133.53,7642 v 0"
         style="fill:#fefefe;fill-opacity:1;fill-rule:nonzero;stroke:none"
         id="path16" /></g><path
       style="fill:#242424;stroke-width:3.36134;fill-opacity:1"
       d="M 0,1400 V 0 H 1400 2800 V 1400 2800 H 1400 0 Z m 938.16037,366.3718 c -41.89822,-45.4542 -65.17049,-105.8394 -76.42598,-198.3046 l -2.455,-20.168 -2.7204,25.21 c -9.65462,89.469 -42.09539,166.8275 -81.96817,195.462 -8.20981,5.8958 -14.92695,11.2196 -14.92695,11.8305 0,0.611 43.30188,1.1109 96.22642,1.1109 h 96.22642 z m 406.11203,-142.0021 c -0.1458,-86.4285 -1.166,-154.8739 -2.2669,-152.1008 -1.1008,2.7731 -8.1663,29.5572 -15.701,59.5202 l -13.6995,54.4782 -166.6721,-283.0496 -166.67223,-283.0496 -115.68074,-0.8107 -115.68077,-0.8107 13.35993,7.5924 c 12.15896,6.9099 33.61217,41.1897 238.65546,381.3453 l 225.29555,373.7528 59.6638,0.1379 59.6639,0.1378 -0.2655,-157.1429 z m 373.3747,-217.9486 v -375.0914 l 7.563,-6.3093 c 7.4302,-6.1986 5.733,-6.3094 -96.6387,-6.3147 l -104.2017,-0.01 9.2437,6.8966 9.2437,6.8965 v 367.5065 367.5065 l -9.2437,6.8966 -9.2437,6.8966 96.6387,0.1065 96.6387,0.1078 z m 336.1344,259.1251 c 0,-63.7815 -1.3019,-115.9664 -2.8931,-115.9664 -1.5913,0 -3.759,7.3104 -4.8172,16.2453 -5.0997,43.0588 -30.971,93.4783 -66.0326,128.6879 -36.7609,36.916 -80.4062,62.1418 -135.9373,78.568 l -27.2946,8.0738 118.4874,0.1788 118.4874,0.179 z m -702.5429,-480.6723 c 4.8321,-33.1693 20.485,-81.2172 34.3578,-105.4644 10.8192,-18.9099 30.6235,-40.9597 48.017,-53.4613 l 10.0841,-7.2478 -95.2269,-0.1066 -95.2268,-0.1065 16.2352,18.2371 c 38.4064,43.142 64.4229,106.2717 70.6934,171.539 2.5862,26.9185 4.2493,23.4032 11.0662,-23.3896 z"
       id="path1142"
       transform="matrix(0.75000002,0,0,-0.75000002,0,2100.0001)" /></g></svg>
